<?xml version="1.0" encoding="UTF-8"?>
<svg id="Layer_1" data-name="Layer 1" xmlns="http://www.w3.org/2000/svg" viewBox="0 0 841.89 595.28">
  <defs>
    <style>
      .cls-1 {
        fill: #dc143c;
        stroke-width: 0px;
      }
    </style>
  </defs>
  <path class="cls-1" d="m355.65,247.23c-.32-.03-.64-.07-.96-.1-.18-.02-.23.05-.12.23.36-.05.74-.09,1.12-.14.12.26.26.47.58.53,1.84.38,3.66.81,5.5,1.14,1.98.36,3.97.67,5.97.94,1.65.23,3.32.32,4.97.55,2.76.39,5.54.48,8.31.63,5.63.3,11.26.07,16.88-.42,2.83-.25,5.66-.6,8.48-1.05,3.3-.52,6.57-1.13,9.81-1.9,10.24-2.42,20.09-5.96,29.55-10.56,9.72-4.73,18.83-10.44,27.43-16.97.61-.46,1.21-.93,1.84-1.36.15-.1.39-.07.59-.1l-.04-.04c-.07.19-.08.42-.21.56-.46.52-.95,1.02-1.44,1.51-4.2,4.17-8.65,8.06-13.2,11.83-10.08,8.35-20.68,15.98-31.58,23.22-10.54,7-21.33,13.61-32.21,20.06-9.27,5.49-18.57,10.92-27.85,16.39-1.62.95-3.19,1.98-4.76,3.01-1.05.69-2.01,1.49-2.72,2.55-.27.41-.62.74-1.02,1.03-.36.26-.49.67-.48,1.11.02.41.04.83.13,1.24.49,2.2,1.43,4.21,2.74,6.03.32.45.7.87,1.1,1.25.52.49,1.09.82,1.88.51.37-.14.82-.11,1.23-.11,1.41.03,2.77-.24,4.08-.73,1.04-.38,2.08-.79,3.1-1.22,10.06-4.2,20.05-8.59,30.01-13.02,12.82-5.71,25.63-11.43,38.47-17.08,8.9-3.92,17.87-7.67,26.93-11.2.58-.23,1.16-.44,1.76-.63.09-.03.24.08.35.15.03.02.03.16,0,.2-.3.29-.6.58-.92.84-7.06,5.9-13.56,12.37-19.63,19.27-7.59,8.63-14.46,17.8-20.82,27.37-7.51,11.3-14.24,23.06-20.37,35.16-10.28,20.3-19.03,41.25-26.3,62.8-2.51,7.44-4.82,14.94-6.9,22.51-.04.13-.18.32.1.41.42-.58.6-1.26.85-1.9,4.71-11.89,9.72-23.65,15.1-35.24,7.11-15.33,14.81-30.34,23.33-44.94,7.12-12.2,14.77-24.04,23.22-35.37,6.7-8.98,13.86-17.58,21.69-25.6,7.11-7.28,14.71-13.98,23.03-19.87.96-.68,1.92-1.37,2.86-2.1,1.98-1.54,3.96-3.06,5.88-4.66,1.28-1.07,2.49-2.23,3.67-3.4,1.09-1.08,2-2.31,2.72-3.67.96-1.81,1.15-3.74.63-5.67-.68-2.55-2.44-4.14-4.94-4.92-1.76-.55-3.57-.59-5.37-.31-2.19.34-4.36.81-6.51,1.4-5.16,1.42-10.22,3.13-15.25,4.96-6.79,2.47-13.48,5.19-20.21,7.82-.52.2-1.04.38-1.56.56-.04.01-.13-.05-.17-.1-.03-.03-.02-.12,0-.16.39-.61,1.03-.92,1.58-1.33,9.81-7.21,19.27-14.86,28.18-23.18,4.27-3.99,8.34-8.18,12.15-12.62,2.81-3.27,5.45-6.68,7.83-10.28,2.46-3.72,4.72-7.55,6.39-11.69,1.12-2.77,2.14-5.58,3.16-8.38.36-.98.59-2,.88-3,.22-.75.25-1.51.19-2.27-.37-4.33-4.73-6.11-7.53-4.89-.84.37-1.62.81-2.3,1.41-.62.55-1.23,1.13-1.79,1.75-1.22,1.33-2.42,2.68-3.61,4.05-5.8,6.67-11.96,12.99-18.56,18.88-9.68,8.65-20.11,16.25-31.51,22.48-13.89,7.59-28.59,12.88-44.25,15.38-3.36.54-6.73,1.03-10.13,1.23-.35.02-.69.08-1.04.11-.97.08-1.94.18-2.91.22-1.81.07-3.62.13-5.42.12-4.8-.01-9.6.09-14.38-.45-.28-.03-.56-.02-.83-.05-2.01-.19-4.01-.38-6.02-.57-.13-.01-.26-.08-.42-.12Zm82.44-46.21c.08-11.27-9.43-20.18-20.04-19.94-10.69-.22-20.14,8.78-20.04,20.18.1,11.23,9.46,19.94,20.18,19.88,10.58-.06,20.05-8.8,19.9-20.13Z"/>
  <path class="cls-1" d="m475.61,218.67c-.2.03-.44,0-.59.1-.63.43-1.24.9-1.84,1.36-8.61,6.53-17.71,12.24-27.43,16.97-9.46,4.6-19.31,8.13-29.55,10.56-3.24.77-6.52,1.38-9.81,1.9-2.82.44-5.64.8-8.48,1.05-5.61.5-11.25.72-16.88.42-2.77-.15-5.56-.23-8.31-.63-1.65-.24-3.32-.33-4.97-.55-1.99-.27-3.99-.58-5.97-.94-1.84-.34-3.67-.76-5.5-1.14-.31-.06-.46-.28-.58-.53h-.02c.13.04.26.11.4.13,2.01.2,4.01.39,6.02.57.28.03.56.02.83.05,4.78.54,9.58.44,14.38.45,1.81,0,3.62-.06,5.42-.12.97-.04,1.94-.14,2.91-.22.35-.03.69-.09,1.04-.11,3.4-.2,6.77-.7,10.13-1.23,15.67-2.5,30.36-7.79,44.25-15.38,11.4-6.23,21.83-13.83,31.51-22.48,6.6-5.89,12.76-12.21,18.56-18.88,1.19-1.36,2.39-2.71,3.61-4.05.56-.61,1.17-1.2,1.79-1.75.68-.6,1.46-1.04,2.3-1.41,2.8-1.22,7.17.55,7.53,4.89.06.76.03,1.53-.19,2.27-.29,1-.52,2.02-.88,3-1.02,2.81-2.04,5.62-3.16,8.38-1.67,4.14-3.93,7.97-6.39,11.69-2.38,3.6-5.02,7.01-7.83,10.28-3.81,4.43-7.88,8.63-12.15,12.62-8.91,8.31-18.36,15.97-28.18,23.18-.55.41-1.19.72-1.58,1.33-.03.04-.03.13,0,.16.04.05.13.11.17.1.52-.18,1.05-.36,1.56-.56,6.73-2.63,13.42-5.35,20.21-7.82,5.03-1.83,10.09-3.54,15.25-4.96,2.15-.59,4.32-1.06,6.51-1.4,1.8-.28,3.61-.24,5.37.31,2.5.78,4.25,2.38,4.94,4.92.52,1.93.33,3.86-.63,5.67-.72,1.36-1.63,2.59-2.72,3.67-1.18,1.17-2.39,2.33-3.67,3.4-1.92,1.6-3.91,3.13-5.88,4.66-.93.73-1.89,1.42-2.86,2.1-8.31,5.88-15.92,12.59-23.03,19.87-7.84,8.02-14.99,16.62-21.69,25.6-8.45,11.33-16.1,23.17-23.22,35.37-8.52,14.59-16.22,29.61-23.33,44.94-5.38,11.6-10.39,23.36-15.1,35.24-.25.64-.43,1.32-.85,1.9-.28-.08-.14-.27-.1-.41,2.09-7.57,4.39-15.07,6.9-22.51,7.28-21.56,16.02-42.5,26.3-62.8,6.13-12.1,12.85-23.86,20.37-35.16,6.36-9.56,13.23-18.74,20.82-27.37,6.07-6.9,12.58-13.37,19.63-19.27.32-.27.62-.56.92-.84.04-.03.04-.18,0-.2-.1-.07-.25-.18-.35-.15-.59.19-1.18.41-1.76.63-9.06,3.54-18.03,7.28-26.93,11.2-12.84,5.65-25.65,11.38-38.47,17.08-9.96,4.43-19.95,8.82-30.01,13.02-1.03.43-2.06.83-3.1,1.22-1.31.48-2.67.76-4.08.73-.41,0-.86-.04-1.23.11-.79.3-1.36-.02-1.88-.51-.4-.38-.78-.8-1.1-1.25-1.31-1.83-2.25-3.83-2.74-6.03-.09-.4-.12-.82-.13-1.24-.02-.43.12-.84.48-1.11.4-.29.75-.62,1.02-1.03.7-1.06,1.66-1.87,2.72-2.55,1.57-1.02,3.14-2.05,4.76-3.01,9.28-5.48,18.58-10.91,27.85-16.39,10.89-6.45,21.67-13.06,32.21-20.06,10.9-7.23,21.5-14.87,31.58-23.22,4.55-3.77,9-7.66,13.2-11.83.49-.49.98-.99,1.44-1.51.12-.14.14-.37.21-.56.29,0,.43-.14.42-.43.03-.03.06-.06.09-.09-.01.05-.03.09-.04.14-.28,0-.45.1-.43.41Z"/>
  <path class="cls-1" d="m438.09,201.03c.14,11.33-9.32,20.07-19.9,20.13-10.72.06-20.08-8.66-20.18-19.88-.1-11.39,9.35-20.4,20.04-20.18,10.61-.25,20.12,8.66,20.04,19.94Z"/>
  <path class="cls-1" d="m355.69,247.22c-.38.05-.76.1-1.12.14-.11-.19-.06-.25.12-.23.32.03.64.07.97.1.01,0,.03,0,.03,0Z"/>
  <path class="cls-1" d="m476.04,218.25l.04-.14s-.06.06-.09.09c0,0,.05.05.05.05Z"/>
  <path class="cls-1" d="m475.61,218.67c-.02-.31.15-.42.43-.41,0,0-.05-.05-.05-.05,0,.29-.13.43-.42.43,0,0,.04.04.04.04Z"/>
</svg>